<svg 
          width="42" 
          height="31" fill="none" 
          xmlns="http://www.w3.org/2000/svg">
          <path d="M 38.5 0 L 3.5 0 C 1.5677083333333333 0 0 1.4877232142857144 0 3.3214285714285716 L 0 27.67857142857143 C 0 29.51227678571429 1.5677083333333333 31 3.5 31 L 38.5 31 C 40.432291666666664 31 42 29.51227678571429 42 27.67857142857143 L 42 3.3214285714285716 C 42 1.4877232142857144 40.432291666666664 0 38.5 0 Z M 12.833333333333334 6.642857142857143 C 15.407291611035665 6.642857142857143 17.5 8.62879469564983 17.5 11.071428571428573 C 17.5 13.514062447207316 15.407291611035665 15.5 12.833333333333334 15.5 C 10.259375055631002 15.5 8.166666666666668 13.514062447207316 8.166666666666668 11.071428571428573 C 8.166666666666668 8.62879469564983 10.259375055631002 6.642857142857143 12.833333333333334 6.642857142857143 Z M 21 23.028570583888463 C 21 23.762052753141948 20.27083375056585 24.357142857142858 19.366667111714683 24.357142857142858 L 6.300000111262004 24.357142857142858 C 5.395833472410838 24.357142857142858 4.666666666666667 23.762052753141948 4.666666666666667 23.028570583888463 L 4.666666666666667 21.700000422341486 C 4.666666666666667 19.499554046562743 6.86145822207133 17.714285714285715 9.56666644414266 17.714285714285715 L 9.931249777475994 17.714285714285715 C 10.828124791383745 18.067187493400915 11.805208305517834 18.267857142857142 12.833333333333334 18.267857142857142 C 13.861458361148834 18.267857142857142 14.845833569765093 18.067187493400915 15.735416889190676 17.714285714285715 L 16.10000022252401 17.714285714285715 C 18.80520844459534 17.714285714285715 21 19.499554046562743 21 21.700000422341486 L 21 23.028570583888463 Z M 37.333333333333336 19.375 C 37.333333333333336 19.679464292313373 37.07083334028721 19.92857142857143 36.75 19.92857142857143 L 26.25 19.92857142857143 C 25.92916665971279 19.92857142857143 25.666666666666668 19.679464292313373 25.666666666666668 19.375 L 25.666666666666668 18.267857142857142 C 25.666666666666668 17.96339285054377 25.92916665971279 17.714285714285715 26.25 17.714285714285715 L 36.75 17.714285714285715 C 37.07083334028721 17.714285714285715 37.333333333333336 17.96339285054377 37.333333333333336 18.267857142857142 L 37.333333333333336 19.375 Z M 37.333333333333336 14.946428571428573 C 37.333333333333336 15.250892863741944 37.07083334028721 15.5 36.75 15.5 L 26.25 15.5 C 25.92916665971279 15.5 25.666666666666668 15.250892863741944 25.666666666666668 14.946428571428573 L 25.666666666666668 13.839285714285715 C 25.666666666666668 13.534821421972344 25.92916665971279 13.285714285714286 26.25 13.285714285714286 L 36.75 13.285714285714286 C 37.07083334028721 13.285714285714286 37.333333333333336 13.534821421972344 37.333333333333336 13.839285714285715 L 37.333333333333336 14.946428571428573 Z M 37.333333333333336 10.517857142857144 C 37.333333333333336 10.822321435170515 37.07083334028721 11.071428571428573 36.75 11.071428571428573 L 26.25 11.071428571428573 C 25.92916665971279 11.071428571428573 25.666666666666668 10.822321435170515 25.666666666666668 10.517857142857144 L 25.666666666666668 9.410714285714286 C 25.666666666666668 9.106249993400915 25.92916665971279 8.857142857142858 26.25 8.857142857142858 L 36.75 8.857142857142858 C 37.07083334028721 8.857142857142858 37.333333333333336 9.106249993400915 37.333333333333336 9.410714285714286 L 37.333333333333336 10.517857142857144 Z" fill="rgb(0,0,0)"/>
        </svg>