<svg 
          width="23.75" 
          height="12.089841842651367" fill="none" 
          xmlns="http://www.w3.org/2000/svg">
          <path d="M 20.1875 2.4179683685302735 L 20.1875 4.835936737060547 L 21.375 4.835936737060547 L 21.375 7.253905105590821 L 20.1875 7.253905105590821 L 20.1875 9.671873474121094 L 2.375 9.671873474121094 L 2.375 2.4179683685302735 L 20.1875 2.4179683685302735 Z M 20.78125 0 L 1.78125 0 C 0.7974804602563381 0 0 0.8119084325982273 0 1.8134762763977053 L 0 10.276365566253663 C 0 11.27793341005314 0.7974804602563381 12.089841842651367 1.78125 12.089841842651367 L 20.78125 12.089841842651367 C 21.765019539743662 12.089841842651367 22.5625 11.27793341005314 22.5625 10.276365566253663 L 22.5625 9.671873474121094 L 22.859375 9.671873474121094 C 23.35125976987183 9.671873474121094 23.75 9.265919257821981 23.75 8.765135335922242 L 23.75 3.324706506729126 C 23.75 2.823922584829387 23.35125976987183 2.4179683685302735 22.859375 2.4179683685302735 L 22.5625 2.4179683685302735 L 22.5625 1.8134762763977053 C 22.5625 0.8119084325982273 21.765019539743662 0 20.78125 0 Z M 19 3.6269525527954105 L 3.5625 3.6269525527954105 L 3.5625 8.462889289855957 L 19 8.462889289855957 L 19 3.6269525527954105 Z" fill="rgb(0,0,0)"/>
        </svg>