<svg 
          width="42" 
          height="41" fill="none" 
          xmlns="http://www.w3.org/2000/svg">
          <path d="M 36.75 5.125 L 28 5.125 C 28 2.298242248594761 24.860937416553497 0 21 0 C 17.139062583446503 0 14 2.298242248594761 14 5.125 L 5.25 5.125 C 2.3515625 5.125 0 6.8466796875 0 8.96875 L 0 37.15625 C 0 39.2783203125 2.3515625 41 5.25 41 L 36.75 41 C 39.6484375 41 42 39.2783203125 42 37.15625 L 42 8.96875 C 42 6.8466796875 39.6484375 5.125 36.75 5.125 Z M 10.5 33.953125 C 9.045312479138374 33.953125 7.875 33.09628907777369 7.875 32.03125 C 7.875 30.96621092222631 9.045312479138374 30.109375 10.5 30.109375 C 11.954687520861626 30.109375 13.125 30.96621092222631 13.125 32.03125 C 13.125 33.09628907777369 11.954687520861626 33.953125 10.5 33.953125 Z M 10.5 26.265625 C 9.045312479138374 26.265625 7.875 25.40878907777369 7.875 24.34375 C 7.875 23.27871092222631 9.045312479138374 22.421875 10.5 22.421875 C 11.954687520861626 22.421875 13.125 23.27871092222631 13.125 24.34375 C 13.125 25.40878907777369 11.954687520861626 26.265625 10.5 26.265625 Z M 10.5 18.578125 C 9.045312479138374 18.578125 7.875 17.72128907777369 7.875 16.65625 C 7.875 15.59121092222631 9.045312479138374 14.734375 10.5 14.734375 C 11.954687520861626 14.734375 13.125 15.59121092222631 13.125 16.65625 C 13.125 17.72128907777369 11.954687520861626 18.578125 10.5 18.578125 Z M 21 3.203125 C 22.454687520861626 3.203125 23.625 4.05996092222631 23.625 5.125 C 23.625 6.19003907777369 22.454687520861626 7.046875 21 7.046875 C 19.545312479138374 7.046875 18.375 6.19003907777369 18.375 5.125 C 18.375 4.05996092222631 19.545312479138374 3.203125 21 3.203125 Z M 35 32.671875 C 35 33.024218757636845 34.60625001043081 33.3125 34.125 33.3125 L 18.375 33.3125 C 17.893749989569187 33.3125 17.5 33.024218757636845 17.5 32.671875 L 17.5 31.390625 C 17.5 31.038281242363155 17.893749989569187 30.75 18.375 30.75 L 34.125 30.75 C 34.60625001043081 30.75 35 31.038281242363155 35 31.390625 L 35 32.671875 Z M 35 24.984375 C 35 25.336718757636845 34.60625001043081 25.625 34.125 25.625 L 18.375 25.625 C 17.893749989569187 25.625 17.5 25.336718757636845 17.5 24.984375 L 17.5 23.703125 C 17.5 23.350781242363155 17.893749989569187 23.0625 18.375 23.0625 L 34.125 23.0625 C 34.60625001043081 23.0625 35 23.350781242363155 35 23.703125 L 35 24.984375 Z M 35 17.296875 C 35 17.649218757636845 34.60625001043081 17.9375 34.125 17.9375 L 18.375 17.9375 C 17.893749989569187 17.9375 17.5 17.649218757636845 17.5 17.296875 L 17.5 16.015625 C 17.5 15.663281242363155 17.893749989569187 15.375 18.375 15.375 L 34.125 15.375 C 34.60625001043081 15.375 35 15.663281242363155 35 16.015625 L 35 17.296875 Z" fill="rgb(0,0,0)"/>
        </svg>