<svg 
          width="25.001924514770508" 
          height="19.44227409362793" fill="none" 
          xmlns="http://www.w3.org/2000/svg">
          <path d="M 12.16948627602834 5.043836242253649 L 4.167316789962141 11.634548061274968 L 4.167316789962141 18.747829675677394 C 4.167316789962141 18.9320077933501 4.240481394260529 19.10864297455834 4.37071497995622 19.23887656246093 C 4.50094856565191 19.36911015036352 4.677583081593146 19.44227409362793 4.861761196144823 19.44227409362793 L 9.725476099982973 19.429686917679245 C 9.909051897214747 19.428769027285 10.084795634206527 19.355199741003275 10.214279194830118 19.22506550451955 C 10.343762755453708 19.094931268035822 10.416450499402158 18.91882057663751 10.416448204661886 18.73524249972871 L 10.416448204661886 14.581163167974184 C 10.416448204661886 14.396985050301478 10.489612808960276 14.22034986909324 10.619846394655966 14.09011628119065 C 10.750079980351655 13.959882693288058 10.92671449629289 13.886718750023649 11.110892610844568 13.886718750023649 L 13.888670897849089 13.886718750023649 C 14.072849012400766 13.886718750023649 14.249482866068208 13.959882693288058 14.379716451763898 14.09011628119065 C 14.509950037459587 14.22034986909324 14.583115304031772 14.396985050301478 14.583115304031772 14.581163167974184 L 14.583115304031772 18.73220531205636 C 14.582829745812314 18.823583492398633 14.600580260786897 18.914118965541412 14.635351487287208 18.9986234940139 C 14.670122713787519 19.083128022486385 14.721231029249136 19.159939723305754 14.78574459415061 19.224654894760096 C 14.850258159052085 19.28937006621444 14.926908827731532 19.340716614847622 15.011304452124971 19.375751338953535 C 15.09570007651841 19.410786063059447 15.186181086455445 19.428819785179755 15.277559710214453 19.428819338993947 L 20.13953813216382 19.44227409362793 C 20.3237162467155 19.44227409362793 20.50035142493053 19.36911015036352 20.63058501062622 19.23887656246093 C 20.76081859632191 19.10864297455834 20.833982538346504 18.9320077933501 20.833982538346504 18.747829675677394 L 20.833982538346504 11.62977439168441 L 12.833549534169084 5.043836242253649 C 12.73949363755234 4.96802236557667 12.622323930199602 4.926680006048119 12.501517242824919 4.926680006048119 C 12.380710555450236 4.926680006048119 12.263542172645085 4.96802236557667 12.16948627602834 5.043836242253649 L 12.16948627602834 5.043836242253649 Z M 24.809677028651873 9.523437057196293 L 21.181204741437845 6.532551595689869 L 21.181204741437845 0.5208333134629013 C 21.181204741437845 0.3826997303823861 21.126331787506405 0.2502238385945545 21.028656595647632 0.15254864508060426 C 20.93098140378886 0.054873451566654005 20.798505017540577 0 20.660371436800833 0 L 18.229816015161447 0 C 18.091682434421703 0 17.95920604817342 0.054873451566654005 17.861530856314648 0.15254864508060426 C 17.763855664455875 0.2502238385945545 17.708982710524435 0.3826997303823861 17.708982710524435 0.5208333134629013 L 17.708982710524435 3.672308914165625 L 13.823132283160371 0.47526043164858767 C 13.45022250779975 0.16839373214340092 12.982285383646355 0.0006134311124096263 12.499347633874633 0.0006134311124102431 C 12.016409884102911 0.0006134311124099348 11.548472759949515 0.16839373214340092 11.175562984588895 0.47526043164858767 L 0.18901852884217696 9.523437057196293 C 0.13627874328029244 9.567028079473422 0.09264491453686452 9.620583430250509 0.060610190419766855 9.681043652898495 C 0.02857546630266919 9.741503875546481 0.00876769190853242 9.807684410579876 0.0023186436753889392 9.875802484545625 C -0.004130404557754543 9.943920558511374 0.002905668065045955 10.012641839737661 0.023024833216919723 10.078039712005266 C 0.04314399836879349 10.14343758427287 0.07595194913035251 10.204229663011603 0.11957409236312 10.256943708747023 L 1.2263448854128252 11.602430430799991 C 1.2698481970656332 11.655328319604626 1.3233573740340878 11.69912664910494 1.3838092551469354 11.731318185197408 C 1.444261136259783 11.763509721289875 1.510468631958752 11.783462690335327 1.578641513100688 11.79003405625173 C 1.6468143942426239 11.796605422168135 1.7156139985285883 11.789666707717721 1.7811017578335209 11.769614830278362 C 1.8465895171384534 11.749562952839003 1.9074795078883047 11.716791509365022 1.9602858933586333 11.673177167806319 L 12.16948627602834 3.264323083529208 C 12.263542172645085 3.1885092068522294 12.380710555450236 3.1471661850498727 12.501517242824919 3.1471661850498727 C 12.622323930199602 3.1471661850498727 12.73949363755234 3.1885092068522294 12.833549534169084 3.264323083529208 L 23.04318618970082 11.673177167806319 C 23.095900234542963 11.716799311778294 23.156692312251533 11.74960692678489 23.222090183410923 11.769726092277699 C 23.287488054570314 11.789845257770507 23.35620933463207 11.796881793425111 23.42432740744351 11.790432745082684 C 23.49244548025495 11.783983696740258 23.55862601416687 11.764175453923876 23.619086235790313 11.732140729263927 C 23.679546457413757 11.700106004603978 23.733100482735725 11.65647224755734 23.776691504274172 11.603732461101743 L 24.88346227662782 10.258245739048776 C 24.927037538119567 10.205227751028712 24.95970716420335 10.144121045666207 24.979589993329903 10.078437076288608 C 24.999472822456454 10.01275310691101 25.006177081518057 9.943787079295467 24.99932045421113 9.875503136785508 C 24.992463826904203 9.807219194275548 24.972179004698752 9.740963775735995 24.939633690769273 9.680544298449094 C 24.907088376839795 9.620124821162193 24.862923489884533 9.566732839880503 24.809677028651873 9.523437057196293 L 24.809677028651873 9.523437057196293 Z" fill="rgb(0,0,0)"/>
        </svg>