<svg 
          width="42" 
          height="36" fill="none" 
          xmlns="http://www.w3.org/2000/svg">
          <path d="M 40.875 11.25 C 41.4937499910593 11.25 42 10.870312493294477 42 10.40625 L 42 7.59375 C 42 7.1296875067055225 41.4937499910593 6.75 40.875 6.75 L 39 6.75 L 39 3.375 C 39 1.51171875 36.984375 0 34.5 0 L 4.5 0 C 2.015625 0 0 1.51171875 0 3.375 L 0 32.625 C 0 34.48828125 2.015625 36 4.5 36 L 34.5 36 C 36.984375 36 39 34.48828125 39 32.625 L 39 29.25 L 40.875 29.25 C 41.4937499910593 29.25 42 28.870312493294477 42 28.40625 L 42 25.59375 C 42 25.129687506705523 41.4937499910593 24.75 40.875 24.75 L 39 24.75 L 39 20.25 L 40.875 20.25 C 41.4937499910593 20.25 42 19.870312493294477 42 19.40625 L 42 16.59375 C 42 16.129687506705523 41.4937499910593 15.75 40.875 15.75 L 39 15.75 L 39 11.25 L 40.875 11.25 Z M 19.5 9 C 22.809374928474426 9 25.5 11.01796880364418 25.5 13.5 C 25.5 15.98203119635582 22.809374928474426 18 19.5 18 C 16.190625071525574 18 13.5 15.98203119635582 13.5 13.5 C 13.5 11.01796880364418 16.190625071525574 9 19.5 9 Z M 30 25.649999141693115 C 30 26.395311668515205 29.062500536441803 27 27.90000057220459 27 L 11.100000143051147 27 C 9.937500178813934 27 9 26.395311668515205 9 25.649999141693115 L 9 24.300000429153442 C 9 22.064062982797623 11.821874856948853 20.25 15.299999713897705 20.25 L 15.768749713897705 20.25 C 16.9218747317791 20.608593743294477 18.178124964237213 20.8125 19.5 20.8125 C 20.821875035762787 20.8125 22.08750030398369 20.608593743294477 23.231250286102295 20.25 L 23.700000286102295 20.25 C 27.178125143051147 20.25 30 22.064062982797623 30 24.300000429153442 L 30 25.649999141693115 Z" fill="rgb(0,0,0)"/>
        </svg>