<svg 
          width="24.9990234375" 
          height="20.00047492980957" fill="none" 
          xmlns="http://www.w3.org/2000/svg">
          <path d="M 8.750000333799063 10.000000238412923 C 11.511719069945098 10.000000238412923 13.750000524541385 7.761718815840114 13.750000524541385 5.000000119206462 C 13.750000524541385 2.23828142257281 11.511719069945098 0 8.750000333799063 0 C 5.988281597653028 0 3.750000143056741 2.23828142257281 3.750000143056741 5.000000119206462 C 3.750000143056741 7.761718815840114 5.988281597653028 10.000000238412923 8.750000333799063 10.000000238412923 Z M 12.250000705737277 11.250000268214539 L 11.597656454014187 11.250000268214539 C 10.730468891129991 11.648437770263223 9.765625372543598 11.875000283115346 8.750000333799063 11.875000283115346 C 7.734375295054529 11.875000283115346 6.773437967012503 11.648437770263223 5.902344213583938 11.250000268214539 L 5.2499999618608495 11.250000268214539 C 2.351562470499204 11.250000268214539 0 13.601562705069535 0 16.500000154962738 L 0 18.12500043212342 C 0 19.160156706802884 0.8398437820387492 20.000000476825846 1.8750000715283706 20.000000476825846 L 12.613281492758722 20.000000476825846 C 12.519531485457012 19.734375463042422 12.480468748807878 19.45312594807539 12.511718750465679 19.167969683826314 L 12.77734447585463 16.789062423435777 L 12.824218762387074 16.35546961677268 L 13.132813477833805 16.046874905741067 L 16.15234436618711 13.02734406058871 C 15.195313079677836 11.945312754989363 13.808594574799882 11.250000268214539 12.250000705737277 11.250000268214539 L 12.250000705737277 11.250000268214539 Z M 14.019531546404998 16.925781176695327 L 13.75390701310899 19.308593733504658 C 13.710938260538475 19.70703123555334 14.046875997802724 20.042968991294337 14.441407277754648 19.996093988314133 L 16.82031338008768 19.730469458818458 L 22.207032097164138 14.343750818810706 L 19.40625026348146 11.542969025199293 L 14.019531546404998 16.925781176695327 L 14.019531546404998 16.925781176695327 Z M 24.726563443280387 10.503906262008115 L 23.246093683128425 9.023437715130411 C 22.882812411819224 8.660156449018736 22.289062880906908 8.660156449018736 21.925781609597706 9.023437715130411 L 20.44921953010629 10.4999997734964 L 20.28906422767093 10.660156265733317 L 23.093751357828275 13.46093805934473 L 24.726563443280387 11.828124805160616 C 25.08984471458959 11.460937311307553 25.08984471458959 10.871093755861178 24.726563443280387 10.503906262008115 L 24.726563443280387 10.503906262008115 Z" fill="rgb(0,0,0)"/>
        </svg>