<svg 
          width="36" 
          height="31" fill="none" 
          xmlns="http://www.w3.org/2000/svg">
          <path d="M 34.714285714285715 26.571428571428573 L 1.2857142857142858 26.571428571428573 C 0.9447216434138163 26.571428571428573 0.6176952059779849 26.68807280542595 0.37657701117651804 26.895702362060547 C 0.13545881637505122 27.103331918695144 3.4793596575306247e-16 27.38493887547936 0 27.67857142857143 L 2.498001805406602e-16 29.892857142857146 C 4.371503159461554e-16 30.186489695949216 0.13545881637505122 30.46809665273343 0.37657701117651804 30.675726209368026 C 0.6176952059779849 30.883355766002623 0.9447216434138163 31 1.2857142857142858 31 L 34.714285714285715 31 C 35.055278356586186 31 35.38230579027108 30.883355766002623 35.62342398507255 30.675726209368026 C 35.864542179874014 30.46809665273343 36 30.186489695949216 36 29.892857142857146 L 36 27.67857142857143 C 36 27.38493887547936 35.864542179874014 27.103331918695144 35.62342398507255 26.895702362060547 C 35.38230579027108 26.68807280542595 35.055278356586186 26.571428571428573 34.714285714285715 26.571428571428573 Z M 34.714285714285715 17.714285714285715 L 1.2857142857142858 17.714285714285715 C 0.9447216434138163 17.714285714285715 0.6176952059779849 17.830929948283092 0.37657701117651804 18.03855950491769 C 0.13545881637505122 18.246189061552286 3.4793596575306247e-16 18.527796018336502 0 18.821428571428573 L 2.498001805406602e-16 21.03571428571429 C 4.371503159461554e-16 21.32934683880636 0.13545881637505122 21.61095379559057 0.37657701117651804 21.81858335222517 C 0.6176952059779849 22.026212908859765 0.9447216434138163 22.142857142857146 1.2857142857142858 22.142857142857146 L 34.714285714285715 22.142857142857146 C 35.055278356586186 22.142857142857146 35.38230579027108 22.026212908859765 35.62342398507255 21.81858335222517 C 35.864542179874014 21.61095379559057 36 21.32934683880636 36 21.03571428571429 L 36 18.821428571428573 C 36 18.527796018336502 35.864542179874014 18.246189061552286 35.62342398507255 18.03855950491769 C 35.38230579027108 17.830929948283092 35.055278356586186 17.714285714285715 34.714285714285715 17.714285714285715 Z M 34.714285714285715 8.857142857142858 L 1.2857142857142858 8.857142857142858 C 0.9447216434138163 8.857142857142858 0.6176952059779849 8.973788146993943 0.37657701117651804 9.18141770362854 C 0.13545881637505122 9.389047260263137 3.4793596575306247e-16 9.670653161193645 0 9.964285714285715 L 2.498001805406602e-16 12.178571428571429 C 4.371503159461554e-16 12.4722039816635 0.13545881637505122 12.753809882594007 0.37657701117651804 12.961439439228604 C 0.6176952059779849 13.169068995863201 0.9447216434138163 13.285714285714286 1.2857142857142858 13.285714285714286 L 34.714285714285715 13.285714285714286 C 35.055278356586186 13.285714285714286 35.38230579027108 13.169068995863201 35.62342398507255 12.961439439228604 C 35.864542179874014 12.753809882594007 36 12.4722039816635 36 12.178571428571429 L 36 9.964285714285715 C 36 9.670653161193645 35.864542179874014 9.389047260263137 35.62342398507255 9.18141770362854 C 35.38230579027108 8.973788146993943 35.055278356586186 8.857142857142858 34.714285714285715 8.857142857142858 Z M 34.714285714285715 0 L 1.2857142857142858 0 C 0.9447216434138163 4.916701966197122e-16 0.6176952059779849 0.11664502588765963 0.37657701117651804 0.32427458252225605 C 0.13545881637505122 0.5319041391568524 3.4793596575306247e-16 0.8135103040507863 0 1.1071428571428572 L 2.498001805406602e-16 3.3214285714285716 C 4.371503159461554e-16 3.6150611245206425 0.13545881637505122 3.896667025451149 0.37657701117651804 4.1042965820857455 C 0.6176952059779849 4.311926138720342 0.9447216434138163 4.428571428571429 1.2857142857142858 4.428571428571429 L 34.714285714285715 4.428571428571429 C 35.055278356586186 4.428571428571429 35.38230579027108 4.311926138720342 35.62342398507255 4.1042965820857455 C 35.864542179874014 3.896667025451149 36 3.6150611245206425 36 3.3214285714285716 L 36 1.1071428571428572 C 36 0.8135103040507863 35.864542179874014 0.5319041391568524 35.62342398507255 0.32427458252225605 C 35.38230579027108 0.11664502588765963 35.055278356586186 7.375052949295683e-16 34.714285714285715 0 L 34.714285714285715 0 Z" fill="rgb(0,0,0)"/>
        </svg>