<svg 
          width="19" 
          height="19.34375" fill="none" 
          xmlns="http://www.w3.org/2000/svg">
          <path d="M 6.162162162162161 10.880859375 L 4.621621621621621 10.880859375 C 4.337905400508158 10.880859375 4.108108108108108 11.151369623141363 4.108108108108108 11.4853515625 L 4.108108108108108 18.7392578125 C 4.108108108108108 19.073239751858637 4.337905400508158 19.34375 4.621621621621621 19.34375 L 6.162162162162161 19.34375 C 6.445878383275624 19.34375 6.675675675675675 19.073239751858637 6.675675675675675 18.7392578125 L 6.675675675675675 11.4853515625 C 6.675675675675675 11.151369623141363 6.445878383275624 10.880859375 6.162162162162161 10.880859375 Z M 2.054054054054054 14.5078125 L 0.5135135135135135 14.5078125 C 0.2297972924000508 14.5078125 0 14.778322748141363 0 15.1123046875 L 0 18.7392578125 C 0 19.073239751858637 0.2297972924000508 19.34375 0.5135135135135135 19.34375 L 2.054054054054054 19.34375 C 2.3377702751675167 19.34375 2.5675675675675675 19.073239751858637 2.5675675675675675 18.7392578125 L 2.5675675675675675 15.1123046875 C 2.5675675675675675 14.778322748141363 2.3377702751675167 14.5078125 2.054054054054054 14.5078125 Z M 10.27027027027027 7.25390625 L 8.72972972972973 7.25390625 C 8.446013508616268 7.25390625 8.216216216216216 7.524416498141363 8.216216216216216 7.8583984375 L 8.216216216216216 18.7392578125 C 8.216216216216216 19.073239751858637 8.446013508616268 19.34375 8.72972972972973 19.34375 L 10.27027027027027 19.34375 C 10.553986491383732 19.34375 10.783783783783782 19.073239751858637 10.783783783783782 18.7392578125 L 10.783783783783782 7.8583984375 C 10.783783783783782 7.524416498141363 10.553986491383732 7.25390625 10.27027027027027 7.25390625 Z M 14.378378378378377 3.626953125 L 12.837837837837837 3.626953125 C 12.554121616724375 3.626953125 12.324324324324323 3.8974633731413633 12.324324324324323 4.2314453125 L 12.324324324324323 18.7392578125 C 12.324324324324323 19.073239751858637 12.554121616724375 19.34375 12.837837837837837 19.34375 L 14.378378378378377 19.34375 C 14.662094599491839 19.34375 14.891891891891891 19.073239751858637 14.891891891891891 18.7392578125 L 14.891891891891891 4.2314453125 C 14.891891891891891 3.8974633731413633 14.662094599491839 3.626953125 14.378378378378377 3.626953125 Z M 18.486486486486484 0 L 16.945945945945944 0 C 16.662229724832482 0 16.43243243243243 0.27051024814136326 16.43243243243243 0.6044921875 L 16.43243243243243 18.7392578125 C 16.43243243243243 19.073239751858637 16.662229724832482 19.34375 16.945945945945944 19.34375 L 18.486486486486484 19.34375 C 18.770202707599946 19.34375 19 19.073239751858637 19 18.7392578125 L 19 0.6044921875 C 19 0.27051024814136326 18.770202707599946 0 18.486486486486484 0 Z" fill="rgb(0,0,0)"/>
        </svg>