<svg 
          width="51" 
          height="38" fill="none" 
          xmlns="http://www.w3.org/2000/svg">
          <path d="M 51 9.5 L 51 33.92857142857143 C 51 36.176339285714285 48.8583984375 38 46.21875 38 L 4.78125 38 C 2.1416015625 38 0 36.176339285714285 0 33.92857142857143 L 0 9.5 C 0 7.252232142857142 2.1416015625 5.428571428571429 4.78125 5.428571428571429 L 13.546875 5.428571428571429 L 14.772070616483688 2.6379462991442 C 15.469336241483688 1.0517855201448714 17.25234344601631 0 19.24453094601631 0 L 31.745509028434753 0 C 33.73769652843475 0 35.52070373296738 1.0517855201448714 36.21796935796738 2.6379462991442 L 37.453125 5.428571428571429 L 46.21875 5.428571428571429 C 48.8583984375 5.428571428571429 51 7.252232142857142 51 9.5 Z M 37.453125 21.714285714285715 C 37.453125 16.0991074017116 32.09414032101631 11.535714285714286 25.5 11.535714285714286 C 18.90585967898369 11.535714285714286 13.546875 16.0991074017116 13.546875 21.714285714285715 C 13.546875 27.32946402685983 18.90585967898369 31.892857142857146 25.5 31.892857142857146 C 32.09414032101631 31.892857142857146 37.453125 27.32946402685983 37.453125 21.714285714285715 Z M 34.265625 21.714285714285715 C 34.265625 25.828125 30.3310546875 29.17857142857143 25.5 29.17857142857143 C 20.6689453125 29.17857142857143 16.734375 25.828125 16.734375 21.714285714285715 C 16.734375 17.60044642857143 20.6689453125 14.25 25.5 14.25 C 30.3310546875 14.25 34.265625 17.60044642857143 34.265625 21.714285714285715 Z" fill="rgb(0,0,0)"/>
        </svg>