<svg 
          width="20.900009155273438" 
          height="19.34375" fill="none" 
          xmlns="http://www.w3.org/2000/svg">
          <path d="M 20.733771852397815 5.30571416712233 C 14.948058254644165 -1.7698666767350266 5.949620606929366 -1.7672761013465266 0.16619268987152472 5.30571416712233 C -0.05129814986684578 5.571690723033888 -0.05554348596464462 6.022037560020441 0.15476297836722497 6.297945059835911 L 1.2729141160828616 7.764702227498804 C 1.4734236892886825 8.028088105077456 1.79606781569404 8.033701457648672 2.0044149049150457 7.781110083418233 C 6.769619659194016 2.009073569306305 14.12969287920287 2.0077776227678568 18.89587728210795 7.781110083418233 C 19.104224371328957 8.033701457648672 19.426869245177315 8.027656335649745 19.627378818383136 7.764702227498804 L 20.74552962909246 6.297945059835911 C 20.955509523119986 6.022037560020441 20.951262692136186 5.571690723033888 20.733771852397815 5.30571416712233 Z M 10.449982652642035 13.816964285714286 C 9.29558309873301 13.816964285714286 8.359980541205891 15.054014435304062 8.359980541205891 16.580357142857142 C 8.359980541205891 18.106699850410223 9.29558309873301 19.34375 10.449982652642035 19.34375 C 11.60438220655106 19.34375 12.53998476407818 18.106699850410223 12.53998476407818 16.580357142857142 C 12.53998476407818 15.054014435304062 11.60438220655106 13.816964285714286 10.449982652642035 13.816964285714286 Z M 17.06843096837569 10.207714304327965 C 13.30446772104981 5.806579386017152 7.591251609695564 5.811328993844135 3.8315338386130464 10.207714304327965 C 3.606205482859491 10.471100181906618 3.5990211074529905 10.92835508266996 3.812919767273975 11.207285050834928 L 4.937601984070136 12.674905304397855 C 5.133539682017275 12.93051914697779 5.448999479731319 12.947791138830196 5.657673123684938 12.70944850572518 C 8.399167981136252 9.576020086982421 12.507001599348065 9.582928397825786 15.241965299860208 12.70944850572518 C 15.450638943813827 12.947791138830196 15.766099239823204 12.9309509164055 15.962036937770343 12.674905304397855 L 17.086718407123506 11.207285050834928 C 17.300943621677103 10.92835508266996 17.293432753824902 10.470668412478906 17.06843096837569 10.207714304327965 L 17.06843096837569 10.207714304327965 Z" fill="rgb(0,0,0)"/>
        </svg>